HIERARCHY
ROOT newVegas:Hips
{
	OFFSET 0.000000 96.479958 0.000000
	CHANNELS 6 Xposition Yposition Zposition Xrotation Yrotation Zrotation
	JOINT newVegas:Pelvis
	{
		OFFSET 0.000000 0.000000 0.000000
		CHANNELS 3 Xrotation Yrotation Zrotation
		JOINT newVegas:LeftUpLeg
		{
			OFFSET 18.735201 -5.666702 -4.541200
			CHANNELS 3 Xrotation Yrotation Zrotation
			JOINT newVegas:LeftLeg
			{
				OFFSET -0.021200 -31.938179 0.493100
				CHANNELS 3 Xrotation Yrotation Zrotation
				JOINT newVegas:LeftFoot
				{
					OFFSET 0.021200 -31.938179 -4.336299
					CHANNELS 3 Xrotation Yrotation Zrotation
					JOINT newVegas:LeftToeBase
					{
						OFFSET 0.943001 -26.722000 15.023500
						CHANNELS 3 Xrotation Yrotation Zrotation
						End Site
						{
							OFFSET 0.000000 30.670183 0.000000
						}
					}
				}
				JOINT newVegas:Left_PantLeg
				{
					OFFSET 0.663870 -9.044666 -1.108900
					CHANNELS 3 Xrotation Yrotation Zrotation
					End Site
					{
						OFFSET 1.415995 20.635357 0.000000
					}
				}
			}
		}
		JOINT newVegas:RightUpLeg
		{
			OFFSET -18.735201 -5.666702 -4.541200
			CHANNELS 3 Xrotation Yrotation Zrotation
			JOINT newVegas:RightLeg
			{
				OFFSET 0.018946 -31.938133 0.493100
				CHANNELS 3 Xrotation Yrotation Zrotation
				JOINT newVegas:RightFoot
				{
					OFFSET -0.018946 -31.938126 -4.336299
					CHANNELS 3 Xrotation Yrotation Zrotation
					JOINT newVegas:RightToeBase
					{
						OFFSET -0.943001 -26.722004 15.023500
						CHANNELS 3 Xrotation Yrotation Zrotation
						End Site
						{
							OFFSET 0.000000 30.670187 0.000000
						}
					}
				}
				JOINT newVegas:Right_PantLeg
				{
					OFFSET -0.661674 -9.044716 -1.108900
					CHANNELS 3 Xrotation Yrotation Zrotation
					End Site
					{
						OFFSET -1.415958 20.635269 0.000000
					}
				}
			}
		}
	}
	JOINT newVegas:Spine
	{
		OFFSET 0.000000 10.199997 -0.299500
		CHANNELS 3 Xrotation Yrotation Zrotation
		JOINT newVegas:Spine1
		{
			OFFSET 0.000000 11.900002 -1.516600
			CHANNELS 3 Xrotation Yrotation Zrotation
			JOINT newVegas:Spine2
			{
				OFFSET 0.000000 13.600006 -2.842500
				CHANNELS 3 Xrotation Yrotation Zrotation
				JOINT newVegas:Neck
				{
					OFFSET 0.000000 9.624100 -2.890100
					CHANNELS 3 Xrotation Yrotation Zrotation
					JOINT newVegas:Head
					{
						OFFSET 0.000000 14.068802 -1.351900
						CHANNELS 3 Xrotation Yrotation Zrotation
						JOINT newVegas:Hair_Back
						{
							OFFSET 0.000000 3.231903 -17.524799
							CHANNELS 3 Xrotation Yrotation Zrotation
							End Site
							{
								OFFSET 0.000000 19.849884 0.000000
							}
						}
						JOINT newVegas:Hair_Front
						{
							OFFSET 0.000000 31.260406 4.573800
							CHANNELS 3 Xrotation Yrotation Zrotation
							JOINT newVegas:Hair_Front1
							{
								OFFSET 0.000000 2.284103 11.993300
								CHANNELS 3 Xrotation Yrotation Zrotation
								JOINT newVegas:Hair_Front2
								{
									OFFSET 0.000000 2.284103 11.993300
									CHANNELS 3 Xrotation Yrotation Zrotation
									End Site
									{
										OFFSET 0.000000 12.208862 0.000000
									}
								}
							}
						}
						JOINT newVegas:Jowel
						{
							OFFSET 0.000000 -7.458206 6.864100
							CHANNELS 3 Xrotation Yrotation Zrotation
							End Site
							{
								OFFSET 0.000000 19.849884 0.000000
							}
						}
					}
				}
				JOINT newVegas:LeftShoulder
				{
					OFFSET 15.263000 10.923401 -0.547700
					CHANNELS 3 Xrotation Yrotation Zrotation
					JOINT newVegas:LeftArm
					{
						OFFSET 25.438599 -2.830597 -13.032500
						CHANNELS 3 Xrotation Yrotation Zrotation
						JOINT newVegas:LeftForeArm
						{
							OFFSET 29.960503 0.000000 0.000000
							CHANNELS 3 Xrotation Yrotation Zrotation
							JOINT newVegas:LeftHand
							{
								OFFSET 27.849251 0.000000 0.000000
								CHANNELS 3 Xrotation Yrotation Zrotation
								JOINT newVegas:LeftHandThumb1
								{
									OFFSET 4.487587 -3.305161 6.305391
									CHANNELS 3 Xrotation Yrotation Zrotation
									JOINT newVegas:LeftHandThumb2
									{
										OFFSET 5.480453 -3.164139 3.164143
										CHANNELS 3 Xrotation Yrotation Zrotation
										JOINT newVegas:LeftHandThumb3
										{
											OFFSET 5.159721 -2.978973 2.978967
											CHANNELS 3 Xrotation Yrotation Zrotation
											End Site
											{
												OFFSET 2.494507 5.926697 1.738678
											}
										}
									}
								}
								JOINT newVegas:LeftHandIndex1
								{
									OFFSET 18.578728 -0.527832 5.208049
									CHANNELS 3 Xrotation Yrotation Zrotation
									JOINT newVegas:LeftHandIndex2
									{
										OFFSET 3.192009 0.000000 0.000000
										CHANNELS 3 Xrotation Yrotation Zrotation
										JOINT newVegas:LeftHandIndex3
										{
											OFFSET 3.835129 0.000000 0.000000
											CHANNELS 3 Xrotation Yrotation Zrotation
											End Site
											{
												OFFSET -0.034599 3.816971 0.371180
											}
										}
									}
								}
								JOINT newVegas:LeftHandMiddle1
								{
									OFFSET 18.476105 0.000000 0.000000
									CHANNELS 3 Xrotation Yrotation Zrotation
									JOINT newVegas:LeftHandMiddle2
									{
										OFFSET 3.324875 0.000000 0.000000
										CHANNELS 3 Xrotation Yrotation Zrotation
										JOINT newVegas:LeftHandMiddle3
										{
											OFFSET 4.596550 0.000000 0.000000
											CHANNELS 3 Xrotation Yrotation Zrotation
											End Site
											{
												OFFSET 0.057701 4.578827 0.399218
											}
										}
									}
								}
								JOINT newVegas:LeftHandRing1
								{
									OFFSET 17.732719 0.121887 -4.201567
									CHANNELS 3 Xrotation Yrotation Zrotation
									JOINT newVegas:LeftHandRing2
									{
										OFFSET 2.733170 0.000000 0.000000
										CHANNELS 3 Xrotation Yrotation Zrotation
										JOINT newVegas:LeftHandRing3
										{
											OFFSET 3.178268 0.000000 0.000000
											CHANNELS 3 Xrotation Yrotation Zrotation
											End Site
											{
												OFFSET 0.119102 3.170624 0.185394
											}
										}
									}
								}
								JOINT newVegas:LeftHandPinky1
								{
									OFFSET 15.989624 -0.606689 -7.535461
									CHANNELS 3 Xrotation Yrotation Zrotation
									JOINT newVegas:LeftHandPinky2
									{
										OFFSET 2.538986 0.000000 0.000000
										CHANNELS 3 Xrotation Yrotation Zrotation
										JOINT newVegas:LeftHandPinky3
										{
											OFFSET 2.593102 0.000000 0.000000
											CHANNELS 3 Xrotation Yrotation Zrotation
											End Site
											{
												OFFSET -0.150902 2.584198 0.152708
											}
										}
									}
								}
							}
							JOINT newVegas:Left_Sleeve
							{
								OFFSET 0.267448 -0.649796 0.577675
								CHANNELS 3 Xrotation Yrotation Zrotation
								End Site
								{
									OFFSET 0.000000 15.991241 0.000000
								}
							}
							JOINT newVegas:Left_CapeC
							{
								OFFSET 15.715958 -8.608795 -6.935905
								CHANNELS 3 Xrotation Yrotation Zrotation
								JOINT newVegas:Left_CapeC1
								{
									OFFSET 0.000000 -8.688499 0.000000
									CHANNELS 3 Xrotation Yrotation Zrotation
									End Site
									{
										OFFSET 0.000000 8.688499 0.000000
									}
								}
							}
						}
						JOINT newVegas:Left_CapeB
						{
							OFFSET 26.118385 -8.608795 -7.079235
							CHANNELS 3 Xrotation Yrotation Zrotation
							JOINT newVegas:Left_CapeB1
							{
								OFFSET 0.000000 -8.688499 0.000000
								CHANNELS 3 Xrotation Yrotation Zrotation
								End Site
								{
									OFFSET 0.000000 8.688499 0.000000
								}
							}
						}
						JOINT newVegas:Left_CapeA
						{
							OFFSET 5.115639 -8.608795 -10.395809
							CHANNELS 3 Xrotation Yrotation Zrotation
							JOINT newVegas:Left_CapeA1
							{
								OFFSET 0.000000 -8.688499 0.000000
								CHANNELS 3 Xrotation Yrotation Zrotation
								End Site
								{
									OFFSET 0.000000 8.688499 0.000000
								}
							}
						}
					}
				}
				JOINT newVegas:RightShoulder
				{
					OFFSET -15.263000 10.923401 -0.547700
					CHANNELS 3 Xrotation Yrotation Zrotation
					JOINT newVegas:RightArm
					{
						OFFSET -25.438599 -2.830597 -13.032500
						CHANNELS 3 Xrotation Yrotation Zrotation
						JOINT newVegas:RightForeArm
						{
							OFFSET -29.960503 0.000000 0.000000
							CHANNELS 3 Xrotation Yrotation Zrotation
							JOINT newVegas:RightHand
							{
								OFFSET -27.849251 0.000000 0.000000
								CHANNELS 3 Xrotation Yrotation Zrotation
								JOINT newVegas:RightHandThumb1
								{
									OFFSET -4.487587 -3.305161 6.305391
									CHANNELS 3 Xrotation Yrotation Zrotation
									JOINT newVegas:RightHandThumb2
									{
										OFFSET -5.480453 -3.164139 3.164143
										CHANNELS 3 Xrotation Yrotation Zrotation
										JOINT newVegas:RightHandThumb3
										{
											OFFSET -5.159721 -2.978973 2.978967
											CHANNELS 3 Xrotation Yrotation Zrotation
											End Site
											{
												OFFSET -2.494507 5.926697 1.738678
											}
										}
									}
								}
								JOINT newVegas:RightHandIndex1
								{
									OFFSET -18.578728 -0.527832 5.208049
									CHANNELS 3 Xrotation Yrotation Zrotation
									JOINT newVegas:RightHandIndex2
									{
										OFFSET -3.192009 0.000000 0.000000
										CHANNELS 3 Xrotation Yrotation Zrotation
										JOINT newVegas:RightHandIndex3
										{
											OFFSET -3.835129 0.000000 0.000000
											CHANNELS 3 Xrotation Yrotation Zrotation
											End Site
											{
												OFFSET 0.034599 3.816971 0.371180
											}
										}
									}
								}
								JOINT newVegas:RightHandMiddle1
								{
									OFFSET -18.476105 0.000000 0.000000
									CHANNELS 3 Xrotation Yrotation Zrotation
									JOINT newVegas:RightHandMiddle2
									{
										OFFSET -3.324875 0.000000 0.000000
										CHANNELS 3 Xrotation Yrotation Zrotation
										JOINT newVegas:RightHandMiddle3
										{
											OFFSET -4.596550 0.000000 0.000000
											CHANNELS 3 Xrotation Yrotation Zrotation
											End Site
											{
												OFFSET -0.057701 4.578827 0.399218
											}
										}
									}
								}
								JOINT newVegas:RightHandRing1
								{
									OFFSET -17.732719 0.121887 -4.201567
									CHANNELS 3 Xrotation Yrotation Zrotation
									JOINT newVegas:RightHandRing2
									{
										OFFSET -2.733170 0.000000 0.000000
										CHANNELS 3 Xrotation Yrotation Zrotation
										JOINT newVegas:RightHandRing3
										{
											OFFSET -3.178268 0.000000 0.000000
											CHANNELS 3 Xrotation Yrotation Zrotation
											End Site
											{
												OFFSET -0.119102 3.170624 0.185394
											}
										}
									}
								}
								JOINT newVegas:RightHandPinky1
								{
									OFFSET -15.989624 -0.606689 -7.535461
									CHANNELS 3 Xrotation Yrotation Zrotation
									JOINT newVegas:RightHandPinky2
									{
										OFFSET -2.538986 0.000000 0.000000
										CHANNELS 3 Xrotation Yrotation Zrotation
										JOINT newVegas:RightHandPinky3
										{
											OFFSET -2.593102 0.000000 0.000000
											CHANNELS 3 Xrotation Yrotation Zrotation
											End Site
											{
												OFFSET 0.150902 2.584198 0.152708
											}
										}
									}
								}
							}
							JOINT newVegas:Right_CapeC
							{
								OFFSET -15.715958 -8.608795 -6.935905
								CHANNELS 3 Xrotation Yrotation Zrotation
								JOINT newVegas:Right_CapeC1
								{
									OFFSET 0.000000 -8.688499 0.000000
									CHANNELS 3 Xrotation Yrotation Zrotation
									End Site
									{
										OFFSET 0.000000 8.688499 0.000000
									}
								}
							}
							JOINT newVegas:Right_Sleeve
							{
								OFFSET -0.267448 -0.649994 0.577675
								CHANNELS 3 Xrotation Yrotation Zrotation
								End Site
								{
									OFFSET 0.000000 15.991302 0.000000
								}
							}
						}
						JOINT newVegas:Right_CapeA
						{
							OFFSET -5.115540 -8.608795 -10.395824
							CHANNELS 3 Xrotation Yrotation Zrotation
							JOINT newVegas:Right_CapeA1
							{
								OFFSET 0.000000 -8.688499 0.000000
								CHANNELS 3 Xrotation Yrotation Zrotation
								End Site
								{
									OFFSET 0.000000 8.688499 0.000000
								}
							}
						}
						JOINT newVegas:Right_CapeB
						{
							OFFSET -26.118187 -8.608795 -7.079266
							CHANNELS 3 Xrotation Yrotation Zrotation
							JOINT newVegas:Right_CapeB1
							{
								OFFSET 0.000000 -8.688499 0.000000
								CHANNELS 3 Xrotation Yrotation Zrotation
								End Site
								{
									OFFSET 0.000000 8.688499 0.000000
								}
							}
						}
					}
				}
				JOINT newVegas:Left_Collar
				{
					OFFSET 18.625099 8.655502 8.828100
					CHANNELS 3 Xrotation Yrotation Zrotation
					JOINT newVegas:Left_Collar1
					{
						OFFSET 14.783401 10.540405 -1.259500
						CHANNELS 3 Xrotation Yrotation Zrotation
						End Site
						{
							OFFSET 0.000000 18.199875 0.000000
						}
					}
				}
				JOINT newVegas:Collar_Back
				{
					OFFSET 0.000000 15.630707 -20.132601
					CHANNELS 3 Xrotation Yrotation Zrotation
					End Site
					{
						OFFSET 0.000000 22.523010 0.000000
					}
				}
				JOINT newVegas:Left_Peck
				{
					OFFSET 17.239599 -5.132599 25.482599
					CHANNELS 3 Xrotation Yrotation Zrotation
					End Site
					{
						OFFSET 0.000000 22.523010 0.000000
					}
				}
				JOINT newVegas:Right_Peck
				{
					OFFSET -17.239599 -5.132202 25.482599
					CHANNELS 3 Xrotation Yrotation Zrotation
					End Site
					{
						OFFSET 0.000000 22.523010 0.000000
					}
				}
				JOINT newVegas:Right_Collar
				{
					OFFSET -18.625099 8.655792 8.828100
					CHANNELS 3 Xrotation Yrotation Zrotation
					JOINT newVegas:Right_Collar1
					{
						OFFSET -14.783401 10.539993 -1.259500
						CHANNELS 3 Xrotation Yrotation Zrotation
						End Site
						{
							OFFSET 0.000000 18.199631 0.000000
						}
					}
				}
			}
		}
		JOINT newVegas:Belly
		{
			OFFSET 0.000000 -6.540398 9.014299
			CHANNELS 3 Xrotation Yrotation Zrotation
			End Site
			{
				OFFSET 0.000000 11.566666 0.000000
			}
		}
	}
	JOINT newVegas:ElvisFacialAnim_Joint
	{
		OFFSET 1.000000 -95.330101 -8.825800
		CHANNELS 3 Xrotation Yrotation Zrotation
		End Site
		{
			OFFSET 0.000000 35.315800 0.000000
		}
	}
}
MOTION
Frames: 4
Frame Time: 0.016667
10.076392 93.667717 17.530302 -1.316622 5.925184 -5.716656 -0.000000 0.000000 -0.000000 2.370141 10.554479 10.210884 22.050347 -7.215192 -0.266649 -24.455962 2.493875 -1.426969 0.000000 -0.000000 -0.000000 -0.000003 0.000001 -0.000000 -35.916823 -6.341957 -3.738051 34.225880 0.620710 1.281806 1.695748 0.506641 8.623050 0.000000 -0.000000 0.000000 -0.000000 0.000000 -0.000000 10.003668 -1.258758 3.120563 1.871314 -1.420407 1.481033 -3.085457 -1.618651 0.047468 -0.474011 -0.462178 1.293996 -0.474007 -0.462178 1.293996 -0.000000 0.000000 -0.000000 -0.474080 -0.462177 1.293994 -0.473935 -0.462179 1.293997 -0.000000 -0.000000 -0.000000 -0.000000 0.000000 -0.000000 1.744052 -3.421884 -0.743977 -7.039698 -12.744838 -76.200001 9.887313 -11.719664 -4.534070 1.706378 -0.532261 7.848861 -4.356450 11.023685 11.798663 5.431343 10.003925 0.349298 0.000001 -0.000000 -0.000003 2.289867 -1.111365 -15.774158 -0.016994 0.156537 -19.489074 0.000001 0.000001 0.000001 -0.324414 0.423824 -19.903221 0.047031 0.327314 -24.651811 -0.000002 0.000000 -0.000001 -1.103104 2.349897 -19.788689 -0.026220 0.169229 -29.078284 -0.000002 -0.000004 -0.000003 -3.158372 2.690858 -30.313394 0.023808 0.128479 -31.162738 -0.000002 -0.000002 -0.000002 -0.000002 0.000000 0.000000 -0.000002 0.000000 0.000000 -0.000002 0.000000 0.000000 0.000000 0.000001 0.000000 0.000000 0.000001 -0.000001 0.000000 0.000001 0.000000 0.000000 0.000001 -0.000000 2.245581 4.208255 6.197044 0.519966 4.376572 72.028832 11.172627 15.288352 2.172151 -7.832651 -0.659881 -5.101811 -0.466448 -9.625985 -6.004463 7.286159 -11.588852 1.091633 -0.000000 0.000000 -0.000002 2.690301 -4.660471 9.914389 -0.045369 -0.188963 19.171735 -0.000001 0.000001 0.000000 -1.689183 -5.560293 14.804568 0.093468 -0.624782 27.014810 -0.000002 0.000000 -0.000002 -4.593408 -8.836036 12.400045 -0.024340 -0.323699 32.805884 -0.000001 -0.000001 0.000002 -6.446328 -8.951915 24.517932 0.067055 -0.215915 34.229073 0.000002 0.000003 -0.000000 0.000001 0.000000 0.000000 0.000001 0.000000 0.000000 0.000001 0.000000 0.000001 -0.000001 0.000000 0.000002 -0.000001 0.000000 0.000002 -0.000001 0.000000 0.000002 -0.000001 0.000000 0.000002 0.000000 -0.000000 0.000000 0.000000 -0.000000 0.000000 0.000000 -0.000000 0.000000 0.000000 -0.000000 0.000000 0.000000 -0.000000 0.000000 0.000000 -0.000000 0.000000 0.000000 -0.000000 0.000000 0.000000 0.000000 -0.000000 -0.000000 0.000000 -0.000000 
10.055762 93.445366 18.426527 -1.188720 6.004608 -5.774319 -0.000000 0.000000 0.000000 3.209669 10.477111 10.320394 21.736951 -7.134511 -0.270738 -25.101015 2.586103 -1.613969 -0.000000 -0.000000 -0.000000 0.000001 0.000000 -0.000000 -34.921436 -6.580899 -3.390561 29.806611 1.651769 1.277423 0.765295 0.433414 8.549639 0.000000 -0.000000 0.000000 0.000001 0.000000 -0.000000 10.191690 -1.330303 2.931414 1.658269 -1.547289 1.654123 -3.099211 -1.728067 0.284328 -0.510416 -0.447379 1.244473 -0.510418 -0.447379 1.244473 -0.000000 -0.000000 0.000000 -0.510420 -0.447380 1.244474 -0.510422 -0.447381 1.244473 -0.000000 0.000000 -0.000000 -0.000000 -0.000000 0.000000 1.747731 -3.049442 -1.011632 -6.924671 -13.420954 -75.877842 9.745419 -12.188615 -4.775194 2.092403 -0.946460 8.152650 -4.383277 11.106647 11.775335 5.357290 9.945696 0.408977 0.000001 -0.000000 -0.000003 2.245801 -1.355892 -16.178048 -0.017982 0.152855 -19.607393 -0.000006 -0.000001 -0.000001 -0.299593 0.156412 -20.277011 0.045368 0.314808 -24.655774 0.000001 0.000001 -0.000000 -1.047558 1.972704 -20.300120 -0.026421 0.162927 -29.051018 0.000002 -0.000001 0.000000 -3.136085 2.284619 -30.597984 0.022758 0.123685 -31.167243 -0.000002 -0.000002 -0.000000 0.000000 0.000000 0.000000 0.000000 0.000000 0.000000 -0.000001 0.000001 0.000000 0.000002 -0.000001 0.000000 0.000002 0.000000 0.000000 0.000002 -0.000001 0.000000 0.000002 -0.000001 0.000000 2.286457 4.046475 5.957243 0.577119 4.140637 72.193556 11.311825 15.036755 2.556820 -7.641448 -0.666291 -5.228108 -0.468186 -9.956640 -5.963556 7.202580 -11.575618 0.986485 0.000000 -0.000000 -0.000002 2.686107 -4.470811 10.325777 -0.045353 -0.188975 19.198542 -0.000000 0.000002 -0.000000 -1.600188 -5.334338 15.148414 0.090088 -0.605968 26.848430 -0.000002 -0.000000 0.000000 -4.387608 -8.479941 12.961561 -0.024753 -0.313819 32.544933 -0.000000 0.000002 0.000004 -6.273531 -8.522933 24.848133 0.066309 -0.215079 34.010773 0.000002 0.000003 0.000003 -0.000001 -0.000000 -0.000000 -0.000002 -0.000000 0.000000 -0.000002 -0.000000 0.000000 0.000002 -0.000001 -0.000001 0.000002 0.000000 -0.000001 0.000002 -0.000001 -0.000001 0.000002 -0.000000 -0.000001 -0.000000 0.000000 0.000000 -0.000000 0.000000 0.000000 -0.000000 0.000000 0.000000 -0.000000 0.000000 0.000000 -0.000000 0.000000 0.000000 -0.000000 0.000000 0.000000 -0.000000 0.000000 0.000000 0.000000 0.000000 0.000000 -0.000000 0.000000 0.000000 
10.014088 93.224365 19.340965 -1.044973 6.135871 -5.779643 0.000000 -0.000000 0.000001 4.141292 10.368681 10.388582 21.206851 -7.032682 -0.285435 -25.624981 2.659288 -1.837392 -0.000000 -0.000000 0.000000 0.000000 0.000001 -0.000000 -33.822465 -6.849398 -3.018654 25.410339 2.625625 1.309282 -0.053241 0.516802 7.895501 -0.000000 0.000000 -0.000000 0.000001 -0.000000 0.000000 10.278820 -1.421853 2.776388 1.530882 -1.655979 1.713172 -3.029681 -1.822409 0.405165 -0.575455 -0.448377 1.241437 -0.575456 -0.448377 1.241437 0.000000 -0.000000 -0.000000 -0.575457 -0.448377 1.241437 -0.575528 -0.448376 1.241436 0.000000 -0.000000 -0.000000 0.000000 -0.000000 -0.000000 1.734722 -2.975680 -1.007657 -6.950068 -13.745414 -75.686863 9.739468 -12.702277 -4.881130 2.520967 -1.552538 8.466087 -4.410143 11.189406 11.752206 5.283380 9.887565 0.468347 0.000002 -0.000000 -0.000001 2.198447 -1.599434 -16.581452 -0.018966 0.149172 -19.725598 -0.000002 -0.000001 0.000001 -0.278365 -0.110842 -20.650201 0.043789 0.302354 -24.659691 -0.000004 -0.000003 -0.000002 -0.999203 1.595597 -20.811897 -0.026624 0.156621 -29.023653 0.000004 -0.000000 -0.000002 -3.117934 1.878832 -30.880378 0.021733 0.118972 -31.171757 -0.000000 -0.000003 -0.000001 -0.000000 -0.000001 0.000001 -0.000000 -0.000001 0.000001 -0.000001 -0.000000 0.000001 0.000002 0.000001 0.000000 0.000002 0.000001 0.000000 0.000002 0.000001 0.000000 0.000001 0.000001 -0.000000 2.341272 3.697851 6.000389 0.577672 4.244795 72.228479 11.271327 14.839599 2.930558 -7.640650 -0.677188 -5.414272 -0.470738 -10.343839 -5.916562 7.104734 -11.559883 0.863604 -0.000001 0.000001 0.000001 2.674553 -4.239840 10.801754 -0.045336 -0.189000 19.226329 0.000001 0.000000 0.000002 -1.500428 -5.066629 15.545437 0.086121 -0.583987 26.650855 -0.000000 -0.000000 0.000001 -4.154875 -8.063594 13.611039 -0.025327 -0.302244 32.236755 -0.000001 0.000001 0.000001 -6.074246 -8.029431 25.226236 0.065574 -0.214054 33.752910 -0.000001 0.000003 -0.000003 -0.000004 0.000000 0.000001 -0.000004 0.000000 0.000001 -0.000004 0.000000 0.000001 -0.000000 0.000000 0.000002 0.000000 0.000000 0.000002 -0.000000 0.000000 0.000002 0.000000 0.000000 0.000002 0.000000 0.000000 0.000000 0.000000 0.000000 0.000000 0.000000 0.000000 0.000000 0.000000 0.000000 0.000000 0.000000 0.000000 0.000000 0.000000 0.000000 0.000000 0.000000 0.000000 0.000000 0.000001 0.000000 -0.000000 0.000000 -0.000000 0.000001 
9.963887 93.000381 20.285587 -0.842810 6.311048 -5.774376 -0.000000 -0.000000 -0.000000 4.767232 10.239610 10.542768 21.027205 -7.110142 -0.363242 -26.080932 2.786435 -1.977203 0.000000 0.000000 0.000000 0.000001 0.000001 0.000000 -32.786865 -7.079134 -2.913303 21.335650 2.883538 1.594700 -0.756430 0.878116 7.352082 0.000000 -0.000000 -0.000000 -0.000001 -0.000000 -0.000000 10.401523 -1.519954 2.533763 1.273627 -1.788264 1.884379 -3.086572 -1.937610 0.641754 -0.593880 -0.441784 1.184712 -0.593949 -0.441786 1.184712 0.000000 -0.000000 0.000000 -0.593722 -0.441779 1.184712 -0.594006 -0.441783 1.184709 -0.000000 0.000000 -0.000000 0.000000 -0.000000 0.000000 1.738330 -2.704592 -1.152258 -6.991230 -14.055431 -75.556427 10.158547 -13.161977 -4.994909 2.946560 -2.051342 8.656872 -4.437004 11.271964 11.729153 5.209697 9.829529 0.527484 -0.000007 0.000002 -0.000004 2.147826 -1.841602 -16.983771 -0.019985 0.145576 -19.843352 -0.000001 -0.000001 -0.000000 -0.260709 -0.377517 -21.022081 0.042237 0.289963 -24.663617 -0.000005 -0.000001 -0.000003 -0.958143 1.219233 -21.323490 -0.026834 0.150373 -28.996301 0.000002 -0.000001 0.000002 -3.103774 1.474215 -31.160617 0.020717 0.114273 -31.176340 0.000003 -0.000005 -0.000002 0.000000 -0.000000 -0.000000 0.000000 -0.000000 -0.000000 -0.000001 0.000000 -0.000000 0.000001 0.000000 0.000001 0.000001 0.000000 0.000001 0.000001 0.000000 0.000001 0.000001 -0.000000 0.000001 2.373052 3.408513 5.817491 0.773666 4.237541 72.357398 11.267696 14.704965 3.217598 -7.714443 -0.569652 -5.519652 -0.474378 -10.781640 -5.864790 6.994184 -11.541830 0.724871 0.000002 -0.000002 -0.000001 2.654089 -3.972523 11.335041 -0.045306 -0.189013 19.255055 -0.000000 0.000001 0.000001 -1.393029 -4.761472 15.989242 0.081607 -0.559089 26.425466 -0.000001 0.000001 0.000003 -3.902709 -7.591994 14.337108 -0.025848 -0.289219 31.886762 -0.000000 0.000001 0.000002 -5.854045 -7.477590 25.644949 0.064660 -0.212882 33.459936 0.000000 0.000001 0.000003 -0.000002 0.000000 0.000000 -0.000002 0.000000 -0.000000 -0.000002 0.000000 0.000000 0.000000 0.000000 0.000001 0.000001 0.000000 0.000001 0.000000 0.000000 0.000001 0.000001 -0.000000 0.000001 0.000000 0.000000 0.000000 0.000000 0.000000 0.000000 0.000000 0.000000 0.000000 0.000000 0.000000 0.000000 0.000000 0.000000 0.000000 0.000000 0.000000 0.000000 0.000000 0.000000 0.000000 -0.000001 0.000000 -0.000000 -0.000000 -0.000000 -0.000000 
